<?xml version="1.0" encoding="utf-8"?>
<svg class="icon icon-facebook" version="1.1" id="Layer_1" xmlns="http://www.w3.org/2000/svg" xmlns:xlink="http://www.w3.org/1999/xlink" x="0px" y="0px"
   width="25px" height="25px" viewBox="0 0 25 25" enable-background="new 0 0 25 25" xml:space="preserve">
<path class="icon-background icon-facebook--foreground" d="M23.63,1.38C22.721,0.46,21.609,0,20.32,0H4.69C3.4,0,2.29,0.46,1.38,1.38C0.46,2.29,0,3.4,0,4.69v15.621
  C0,21.6,0.46,22.71,1.38,23.63C2.29,24.54,3.4,25,4.69,25h15.621c1.289,0,2.399-0.46,3.319-1.37c0.91-0.91,1.37-2.021,1.37-3.31
  V4.69C25,3.4,24.54,2.29,23.63,1.38z M16.45,7.041c0,0-1.333,0-1.865,0c-0.659,0-0.796,0.273-0.796,0.952c0,0.566,0,1.646,0,1.646
  h2.656l-0.254,2.886h-2.402v8.623h-3.442v-8.584H8.555V9.639h1.792c0,0,0-0.42,0.005-2.305c0-2.158,1.152-3.286,3.716-3.286
  c0.42,0,2.383,0,2.383,0V7.041z"/>
</svg>
