<svg  class="icon icon-ical" version="1.1" xmlns="http://www.w3.org/2000/svg" x="0px" y="0px"
	 width="25px" height="25px" viewBox="0 0 25 25" preserveAspectRatio="xMinYMin" xml:space="preserve">
	<path class="icon-foreground icon-ical--foreground" d="M7.312,17.251c0.281-0.317,0.567-0.594,0.854-0.82c0.297-0.237,0.605-0.47,0.922-0.697
		c0.323-0.23,0.626-0.455,0.909-0.67c0.29-0.222,0.553-0.452,0.785-0.687c0.247-0.25,0.442-0.531,0.583-0.837
		c0.145-0.315,0.218-0.656,0.218-1.014c0-0.828-0.372-1.522-1.106-2.064c-0.71-0.524-1.673-0.791-2.862-0.791
		c-1.294,0-2.507,0.237-3.608,0.705l-0.461,0.205l0.694,1.856l0.49-0.168c1.843-0.632,3.19-0.716,4.063-0.171
		c0.351,0.22,0.521,0.456,0.521,0.721c0,0.117-0.057,0.243-0.167,0.377c-0.135,0.161-0.325,0.331-0.563,0.504
		c-0.253,0.182-0.535,0.376-0.846,0.582c-0.324,0.214-0.668,0.464-1.021,0.744c-0.357,0.28-0.708,0.592-1.044,0.924
		c-0.337,0.335-0.664,0.747-0.971,1.226c-0.309,0.48-0.56,1.002-0.748,1.551l-0.013,1.227h7.821v-2.086H6.841
		C6.979,17.656,7.137,17.45,7.312,17.251z"/>
	<path  class="icon-foreground icon-ical--foreground" d="M21.362,15.25c-0.243-0.382-0.592-0.72-1.038-1.008c0.262-0.233,0.471-0.476,0.624-0.724
		c0.213-0.345,0.32-0.731,0.32-1.149c0-0.867-0.325-1.555-0.967-2.044c-0.621-0.474-1.553-0.714-2.77-0.714
		c-1.101,0-1.985,0.257-2.629,0.765c-0.662,0.521-0.998,1.184-0.998,1.967c0,0.358,0.091,0.736,0.27,1.123
		c0.141,0.305,0.362,0.586,0.662,0.839c-0.398,0.289-0.729,0.634-0.987,1.029c-0.326,0.501-0.491,1.036-0.491,1.589
		c0,0.938,0.418,1.714,1.243,2.306c0.798,0.573,1.816,0.863,3.026,0.863c0.651,0,1.255-0.092,1.793-0.272
		c0.542-0.184,0.99-0.435,1.333-0.746c0.339-0.311,0.603-0.663,0.785-1.049c0.184-0.39,0.276-0.802,0.276-1.225
		C21.815,16.241,21.663,15.72,21.362,15.25z M18.789,12.974c-0.174,0.159-0.479,0.364-0.908,0.61
		c-0.158-0.043-0.296-0.083-0.413-0.12c-0.137-0.044-0.303-0.105-0.494-0.187c-0.182-0.077-0.327-0.154-0.431-0.229
		c-0.102-0.076-0.188-0.166-0.261-0.273c-0.063-0.091-0.093-0.186-0.093-0.289c0-0.2,0.115-0.381,0.352-0.553
		c0.262-0.191,0.586-0.284,0.991-0.284c0.439,0,0.81,0.089,1.102,0.265c0.258,0.155,0.378,0.356,0.378,0.633
		C19.012,12.698,18.939,12.837,18.789,12.974z M16.074,15.722c0.313-0.31,0.744-0.548,1.284-0.708
		c0.317,0.082,0.604,0.173,0.849,0.269c0.253,0.098,0.495,0.221,0.718,0.363c0.204,0.13,0.361,0.287,0.466,0.467
		c0.103,0.173,0.154,0.374,0.154,0.598c0,0.355-0.155,0.649-0.476,0.901c-0.333,0.261-0.798,0.394-1.38,0.394
		c-0.644,0-1.161-0.145-1.538-0.428c-0.36-0.272-0.536-0.573-0.536-0.922C15.615,16.334,15.766,16.028,16.074,15.722z"/>
</g>
<path  class="icon-foreground icon-ical--foreground" d="M20.4,0h-1.233v3.666c0,0.552-0.447,1-1,1h-0.5c-0.553,0-1-0.448-1-1V0H8.333v3.667c0,0.552-0.448,1-1,1
	h-0.5c-0.552,0-1-0.448-1-1V0H4.6C2.06,0,0,2.06,0,4.6v15.8C0,22.94,2.06,25,4.6,25h15.8c2.54,0,4.6-2.06,4.6-4.6V4.6
	C25,2.06,22.94,0,20.4,0z M23,20.4c0,1.434-1.166,2.6-2.6,2.6H4.6C3.167,23,2,21.834,2,20.4V7.5h21V20.4z"/>
</svg>
