<?xml version="1.0" encoding="utf-8"?>
<!-- Generator: Adobe Illustrator 16.0.0, SVG Export Plug-In . SVG Version: 6.00 Build 0)  -->
<!DOCTYPE svg PUBLIC "-//W3C//DTD SVG 1.1//EN" "http://www.w3.org/Graphics/SVG/1.1/DTD/svg11.dtd">
<svg version="1.1" id="Shape_1_2_" xmlns="http://www.w3.org/2000/svg" xmlns:xlink="http://www.w3.org/1999/xlink" x="0px" y="0px"
	 width="213px" height="207px" viewBox="0 0 213 207" enable-background="new 0 0 213 207" xml:space="preserve">
	 <style>
	 	path{
	 		fill: #E2CFBA;
	 	}
	 </style>
<g>
	<path d="M67.198,93.133v0.825C67.438,93.277,67.931,93.521,67.198,93.133z"/>
	<path d="M68.856,90.106c0.46-0.367,0.921-0.733,1.381-1.101c-0.34-0.607-0.297-0.683-0.829-1.101
		c-0.407,1.028,0.201,0.58-0.552,1.101V90.106z"/>
	<path d="M69.133,87.631c0.39-0.55,0.215-0.422,0.276-0.826C69.317,87.08,69.225,87.355,69.133,87.631z"/>
	<path d="M72.725,10.32c-0.185-0.733-0.369-1.468-0.553-2.201h-0.276V9.22c-0.184-0.367-0.368-0.733-0.553-1.101
		l-0.552-0.275c0.619,7.515,4.42,15.095,7.46,21.46c2.118,5.686,4.237,11.373,6.355,17.058c1.067,2.303,3.056,4.234,3.039,6.879
		c0.185-0.551,0.369-1.101,0.553-1.651c0.957,0.347,0.869,0.479,1.934,0.275v1.376c0.644,0.345,1.399-2.599,1.381-3.853h0.829
		c0.393,0.948,1.225,0.533,1.381,1.926h0.829c-1.156-3.103-0.496-10.044-2.487-14.306c-4.114-8.809-7.728-19.232-11.604-27.237
		c-0.315,0.636-2.46-4.187-2.487-4.678c-0.092,0.367-0.184,0.733-0.276,1.101c-1.105-2.018-2.21-4.035-3.315-6.053
		c0.46,2.476,0.921,4.952,1.381,7.429h-0.276c-0.645-1.376-1.29-2.752-1.934-4.127l-0.552-0.275
		c0.368,1.192,0.737,2.385,1.105,3.577c-0.737-1.009-1.474-2.019-2.21-3.026c0.369,1.008,0.737,2.018,1.105,3.026
		c-0.369-0.367-0.737-0.734-1.105-1.101c0.46,1.375,0.921,2.751,1.381,4.127v0.274L72.725,10.32z"/>
	<path d="M68.027,91.207c0.655-0.482,0.474-0.273,0.829-1.101h-0.553C68.211,90.474,68.12,90.84,68.027,91.207z"/>
	<path d="M64.712,104.413h-0.276c-0.092,2.292-0.184,4.586-0.276,6.878h-0.276v-0.825
		c-2.145,0.931-0.407,6.287-0.276,9.079H63.33c-0.889-1.449-1.758-4.017-1.381-5.777l-0.829-0.275
		c0.075,3.926,0.733,3.265,1.382,6.053c-0.092-0.184-0.184-0.367-0.276-0.55c-1.241,1.909,0.898,8.745,1.658,10.179
		c-0.492,0.788-0.844,1.679-1.658,2.201c0.815,0.549,0.428,0.231,1.658,0c-0.276,0.367-0.553,0.734-0.829,1.101
		c0.95,0.699,0.559,0.316,1.658,0c-0.092,0.367-0.185,0.733-0.276,1.101c-0.369,0.092-0.737,0.184-1.105,0.275
		c-0.184-0.367-0.368-0.734-0.552-1.101V132.2c-1.544,1.265-0.923,3.17-1.934,4.127c1.619,0.558,4.666-2.711,8.841-2.751
		c-0.368-0.184-0.737-0.367-1.105-0.55c0.555-1.438,0.889-4.805,0.829-9.079h0.276c0.184,0.642,0.369,1.283,0.553,1.926h0.553
		c-0.159-1.467-1.095-1.921-1.658-3.577c0.184,0.275,0.368,0.551,0.552,0.825h0.276c-0.28-3.083-2.094-3.742-1.658-7.428
		c0.267-2.256,4.007-18.097,5.25-19.259c0.092-0.184,0.184-0.367,0.276-0.551c0.092-0.183,0.184-0.366,0.276-0.55
		c0,0,0.336-0.27,0-0.825c2.232-1.789,3.275-3.535,4.352-5.228H78.25c0.092-0.459,0.184-0.917,0.276-1.376
		c0.092,0.092,0.184,0.184,0.276,0.275c-0.078,0.309-0.155,0.617-0.232,0.925c0.62-0.968,1.265-1.919,2.167-2.851
		c0,0,1.045,0.096,0.552-0.275c0.168-1.615,6.26-8.872,4.974-11.005c-0.615,1.103-2.131,1.747-2.763,1.926
		c-4.193,4.757-10.45,9.855-12.433,16.508c-0.185,0.092-0.369,0.184-0.553,0.275c0.092-0.367,0.184-0.734,0.276-1.101
		c-0.899,0.822-4.971,12.617-5.25,15.406C65.264,106.798,64.988,105.605,64.712,104.413z M63.883,134.677v-0.55
		C64.135,134.616,64.153,134.196,63.883,134.677z M85.158,76.9h0.276c-0.092,0.275-0.184,0.551-0.276,0.825V76.9z M79.908,86.255
		h0.276c-0.184,0.184-0.368,0.367-0.553,0.55C79.724,86.622,79.816,86.438,79.908,86.255z M77.146,89.557
		c-0.125,0.305,0.236,0.207-0.276,0.55C76.961,89.923,77.053,89.739,77.146,89.557z M69.409,101.387v2.476l-0.552,0.275
		L69.409,101.387z M65.817,133.852c-0.184-0.275-0.368-0.551-0.553-0.825c0.761,0.336,0.452,0.198,1.105,0.274
		C66.186,133.484,66.001,133.668,65.817,133.852z M68.304,128.624c0.044,0.721,0.301,0.196-0.276,0.825
		C68.12,129.174,68.211,128.899,68.304,128.624z M68.027,130.274C68.027,130.274,68.027,130.274,68.027,130.274
		c0.092-0.184,0.185-0.366,0.276-0.55C68.179,130.029,68.54,129.932,68.027,130.274C68.027,130.274,68.027,130.274,68.027,130.274
		v0.551h-0.276C67.843,130.642,67.935,130.458,68.027,130.274C68.027,130.274,68.027,130.274,68.027,130.274z M67.751,126.423v2.751
		h-0.276c-0.861-0.96-2.692-3.955-3.039-7.152h0.829c-0.009,0.925,1.291,2.481,1.382,4.677
		C67.584,126.838,66.962,126.78,67.751,126.423z"/>
	<path d="M3.649,123.672c0.184,0.092,0.368,0.184,0.553,0.275v-0.826c10.11,8.256,27.757-0.011,40.34,3.853h0.276
		c0.092-0.184,0.184-0.367,0.276-0.551c-0.368-0.092-0.737-0.184-1.105-0.275c0.476-2.279,3.022-2.087,4.974-1.1v-1.927
		l-0.829,0.551c0.163-1.666,0.641-0.018,0.276-1.65c0.315-0.68-0.553-0.58-1.105-1.101c0.711,0.266,1.193,0.328,1.658,0.825
		c0.519-0.78,0.094-1.157-0.276-2.477c-1.105-0.825-2.211-1.65-3.316-2.476c0.161-0.622,0.308-0.514,0.829-1.376
		c-0.369,0.184-0.737,0.367-1.105,0.551c0.499-0.556-0.006-0.204,0.829-0.551c-3.576-6.862-25.524-1.989-33.708-3.302
		c-2.319-0.371-8.274-1.857-8.842-0.55c-0.645-0.275-1.29-0.551-1.934-0.825c-1.53,2.627,1.625,3.966,3.315,6.603
		c-1.381-0.55-2.763-1.101-4.145-1.65C1.433,118.267,3.099,121.239,3.649,123.672z M44.818,116.519
		c-0.276-0.184-0.553-0.367-0.829-0.55C44.814,116.324,44.321,115.957,44.818,116.519z"/>
	<path d="M100.078,73.874c0.83,0.35,1.433-2.283,3.04-3.302c-0.092,0.459-0.185,0.918-0.276,1.376
		c0.46-0.275,0.921-0.55,1.381-0.825c-0.589,0.187-0.111-0.155-0.553,0.275h-0.276c0.273-1.349-0.013-0.528,0.829-1.101
		c-0.184-0.367-0.368-0.734-0.553-1.101c-0.542,1.696-2.029,0.409-2.486,2.751c-0.185-0.275-0.369-0.55-0.553-0.825v2.201
		c-0.276-0.367-0.553-0.734-0.829-1.101c-0.329,0.601-0.453,0.452-1.105,0.275c-0.092,0.366-0.184,0.733-0.276,1.1
		c0.46-0.183,0.921-0.366,1.381-0.55c0.092,0.184,0.185,0.367,0.276,0.55c-0.921,0.459-1.842,0.918-2.763,1.376
		C98.286,74.833,99.315,74.918,100.078,73.874z"/>
	<path d="M32.661,31.229c-0.092,0.275-0.185,0.551-0.276,0.826c0.614,0.498,1.399,3.227,2.487,4.952
		c-0.185-0.092-0.369-0.184-0.553-0.275c-0.116,0.25-0.078,0.191-0.276,0c-0.462,0.574-0.441,0.542-0.553,1.65
		c-0.184-0.366-0.368-0.733-0.552-1.101c-0.092,0.459-0.185,0.917-0.276,1.376c0.46,0.55,0.921,1.101,1.381,1.65
		c-0.156,0.357,0.103,0.214-0.276,0.275c-0.539,0.683-0.433,1.78,0,2.751c0.396,1.063,0.266,0.438,1.105,0.275
		c0.077,1.498,5.672,8.215,7.736,9.354V52.14c0.994,3.339,6.984,10.216,9.67,13.206v0.55c0.092-0.458,0.184-0.917,0.276-1.376
		c0.184,0.917,0.368,1.835,0.552,2.752c0.185-0.643,0.369-1.284,0.553-1.926v-0.551c2.622,2.142,5.273,5.38,5.526,7.429
		c0.792-0.811,2.295-1.282,2.763,0.55c0.276-0.55,0.553-1.101,0.829-1.65c-0.185-0.642-0.369-1.284-0.553-1.926
		c0.184,0.184,0.368,0.366,0.553,0.55v0.551c0.368-0.643,0.737-1.284,1.105-1.926c0.082,1.365,0.792,0.617,1.381,2.2h0.276
		c3.936-4.742-3.123-11.865-4.421-14.031c-5.668-9.458-12.039-13.257-17.959-20.359c-0.189,0.199-5.209-2.583-6.354-4.401
		c-0.185-0.092-0.369-0.184-0.553-0.275v1.101c-0.369-0.092-0.737-0.184-1.105-0.275c0.092-0.458,0.185-0.917,0.276-1.375
		C34.205,32.106,34.003,31.839,32.661,31.229z"/>
	<path d="M78.527,89.281c0.015-0.059,0.029-0.117,0.044-0.175c-0.038,0.059-0.075,0.117-0.113,0.175H78.527z"/>
	<path d="M50.068,92.308c0.184,0.275,0.368,0.55,0.553,0.825C50.263,92.312,50.632,92.803,50.068,92.308z"/>
	<path d="M6.965,64.245c0.369,0.733,0.737,1.467,1.105,2.2c-0.276-0.091-0.553-0.183-0.829-0.274
		c0.921,1.101,1.842,2.201,2.763,3.301c-0.645-0.366-1.29-0.733-1.934-1.1c-0.463,1.072-0.075,0.684-0.829,0.825
		C7.402,81.075,35.544,91.742,46.476,98.36l-0.829-3.026c-0.092,0.367-0.184,0.733-0.276,1.101
		c-0.276-0.825-0.552-1.651-0.829-2.477c0.736,0.551,1.474,1.101,2.21,1.651c0.184,0.183,0.368,0.366,0.552,0.55
		c0.092-0.55,0.185-1.101,0.276-1.65c1.245,0.244,1.53,1.076,2.763,1.926c-0.092-0.825-0.184-1.651-0.276-2.477
		c-0.092,0.459-0.184,0.917-0.276,1.376c-0.276-1.101-0.553-2.201-0.829-3.302c0.368,0.092,0.737,0.184,1.105,0.275
		C48.976,81.121,20.646,69.841,14.149,65.62c-0.386-0.063-0.066-0.053-0.276,0.275c-0.645-0.642-1.29-1.284-1.934-1.926v1.101
		c-0.276-0.367-0.553-0.733-0.829-1.101v0.825c-0.706-0.334-0.501-0.239-0.552-0.55l-3.04-0.826
		c0.184,0.367,0.369,0.734,0.553,1.101c-0.184-0.183-0.369-0.366-0.553-0.55C7.333,64.062,7.149,64.153,6.965,64.245z
		 M46.752,94.509h0.276c-0.092,0.274-0.185,0.55-0.276,0.825V94.509z"/>
	<path d="M133.787,184.199h-0.553C133.727,184.45,133.305,184.468,133.787,184.199z"/>
	<path d="M162.521,165.491h-1.104c0.368,0.091,0.737,0.183,1.104,0.274V165.491z"/>
	<path d="M161.141,165.491c-0.545-0.439-0.377-0.374-1.381-0.551C160.209,165.521,160.095,165.237,161.141,165.491z"
		/>
	<path d="M161.141,166.591c0.276-0.183,0.553-0.366,0.829-0.55c-0.368-0.092-0.737-0.184-1.105-0.275
		C160.957,166.041,161.049,166.316,161.141,166.591z"/>
	<path d="M186.284,186.676c-0.185-0.275-0.368-0.551-0.553-0.826C185.996,186.585,185.445,186.141,186.284,186.676z"
		/>
	<path d="M151.193,68.922h0.553c-0.184-0.55-0.368-1.101-0.553-1.65V68.922z"/>
	<path d="M146.773,69.472c0.184-0.183,0.368-0.366,0.553-0.55h-0.553V69.472z"/>
	<path d="M187.113,185.575c0.184,0.183,0.368,0.366,0.553,0.55h0.275
		C187.443,185.569,187.948,185.921,187.113,185.575z"/>
	<path d="M160.864,158.888h-0.553C160.804,159.139,160.383,159.156,160.864,158.888z"/>
	<path d="M147.049,66.721v1.926c0.277,0.092,0.553,0.184,0.83,0.275c0.092-0.275,0.184-0.55,0.275-0.825
		C146.982,67.774,147.715,68.012,147.049,66.721z"/>
	<path d="M189.047,187.775c-0.276-0.642-0.553-1.283-0.829-1.926c-0.092,0.367-0.185,0.734-0.276,1.101
		c0.185,0.184,0.369,0.367,0.553,0.551C188.679,187.593,188.863,187.685,189.047,187.775z"/>
	<path d="M163.224,161.324c0.045,0.045,0.082,0.088,0.128,0.134v-0.094
		C163.307,161.352,163.267,161.337,163.224,161.324z"/>
	<path d="M164.732,155.312c-0.092,0.091-0.184,0.183-0.276,0.274c1.75,1.926,3.5,3.853,5.25,5.778
		c-2.854-2.018-5.71-4.036-8.565-6.053c0.617,1.438,1.539,1.979,2.486,3.026c-0.92-0.551-1.842-1.101-2.763-1.651
		c2.856,3.959,7.563,6.871,9.394,11.005c-0.956-0.935-4.696-3.985-6.906-6.233v1.007c-1.014-0.643-2.027-1.284-3.04-1.927
		c1.197,1.284,2.396,2.568,3.593,3.853v0.274c-0.553-0.274-1.105-0.55-1.658-0.825c0.751,1.277,1.707,1.464,2.21,3.026
		c-2.776-0.103-1.241,0.486-3.592,0c0.645,0.459,1.29,0.917,1.935,1.376c0.412,0.213,0.027,0.247,1.105,0
		c-0.277,0.275-0.553,0.55-0.83,0.825c3.521,2.218,6.177,9.585,11.605,11.005c-0.641-0.887-0.633-1.053-1.935-1.376
		c0.185-0.366,0.368-0.733,0.553-1.1c0.516,0.948,0.225,0.744,1.382,1.1c0.305,0.717,0.191,0.99,0.553,0.551
		c2.41,1.291,4.977,7.799,9.67,9.079l-1.658-2.751c0.553,0.274,1.105,0.55,1.658,0.825c0.292-0.722-0.22-0.431,0.553-0.551
		c-0.924-2.31-2.69-3.765-4.421-6.327c3.944,2.308,5.622,5.129,8.842,6.878c-0.368-0.642-0.737-1.284-1.105-1.926
		c0.645,0.55,1.29,1.101,1.935,1.65c-1.289-1.926-2.579-3.852-3.869-5.777c0.553,0.275,1.105,0.55,1.658,0.825
		c-5.719-9.09-14.57-18.17-22.933-25.587C165.285,155.494,165.009,155.402,164.732,155.312z M164.732,166.866h0.276
		c-0.185,0.275-0.368,0.551-0.553,0.825C164.549,167.417,164.641,167.142,164.732,166.866z M165.009,169.617
		c0.093-0.183,0.185-0.366,0.276-0.55h0.276C165.377,169.251,165.193,169.435,165.009,169.617z M166.943,171.544l0.275-0.551
		C167.094,171.298,167.456,171.2,166.943,171.544z M169.153,174.02c0.093-0.184,0.185-0.367,0.276-0.55h0.276
		C169.521,173.652,169.338,173.836,169.153,174.02z M184.074,185.575v-0.551C184.326,185.515,184.344,185.095,184.074,185.575z
		 M184.074,184.199h0.275c-0.184,0.184-0.368,0.367-0.553,0.55C183.889,184.566,183.981,184.383,184.074,184.199z M180.758,178.972
		c-0.872-0.514-1.281-0.878-1.658-1.926C179.652,177.688,180.205,178.33,180.758,178.972z M177.995,175.945
		c0.276,0.184,0.552,0.367,0.829,0.551C177.999,176.14,178.492,176.508,177.995,175.945z M177.995,175.67
		c-0.847-0.526-0.558-0.136-1.382-1.375C177.074,174.753,177.534,175.212,177.995,175.67z M176.337,174.02
		c-1.255-0.709-2.078-1.749-2.763-3.026L176.337,174.02z M173.298,170.718c-0.655-0.482-0.474-0.273-0.829-1.101
		C172.745,169.984,173.021,170.352,173.298,170.718z M171.916,168.792c0.092,0.275,0.185,0.551,0.276,0.825
		c-0.558-0.496-0.204,0.007-0.552-0.825H171.916z M172.745,177.321c-0.276,0.184-0.553,0.366-0.829,0.55
		c0.335-0.834,0.2-0.684-0.275-1.926C172.008,176.404,172.377,176.862,172.745,177.321z M171.363,168.792
		c-0.721-0.549-0.551-0.305-0.828-1.375C170.811,167.875,171.088,168.334,171.363,168.792z"/>
	<path d="M160.588,159.438v0.274c1.224,0.95,1.786,1.351,2.636,1.611c-0.932-0.962-1.564-1.765-1.53-2.161
		C161.324,159.255,160.957,159.347,160.588,159.438z"/>
	<path d="M173.851,108.265c-0.176-1.101,0.021-0.818-0.553-1.375c0.093,0.458,0.185,0.917,0.276,1.375H173.851z"/>
	<path d="M207.283,163.564c-0.093-0.917-0.185-1.834-0.277-2.751c-0.092,0.733-0.184,1.468-0.275,2.201
		C206.914,163.198,207.099,163.382,207.283,163.564z"/>
	<path d="M186.284,44.161c-1.225,0.228-1.156,0.345-1.935,0.825c0.134-1.47-3.52-1.318-6.907-1.101
		c-4.016,2.417-11.054,0.958-12.434,3.302c-0.279,0.475-0.064,0.117-0.553,0c-4.636,4.493-15.726,9.269-16.577,20.358v0.275
		c0.184,0.092,0.367,0.184,0.552,0.275c1.527-1.693,3.792-2.146,4.974-2.751c-0.691,0.891-1.013,1.434-1.658,1.65
		c0.547,2.286,0.749,1.99,0,4.402c9.116,1.429,12.229-7.193,19.895-11.006c-0.185,0.275-0.369,0.551-0.553,0.826
		c0.553-0.184,1.105-0.367,1.657-0.551c-0.276-0.184-0.553-0.366-0.829-0.55h2.486c-0.283-0.176-0.552-0.555,0-0.551
		c0,0,11.974-1.898,12.434-2.476c-1.108,0.26-0.109,0.021-0.275-1.101l3.592-0.275c0.092-0.184,0.184-0.367,0.275-0.55
		c0.087-1.905,0.092-1.947-0.828-2.201c0.541-1.399,0.818-1.688,0.553-3.577c-1.742-0.013-1.851,0.103-2.211-1.375
		c-0.092,0.274-0.184,0.55-0.275,0.825c-0.546-0.943-0.314-0.321,0-1.376c-0.277-0.092-0.553-0.184-0.83-0.274
		c-0.184,0.458-0.367,0.917-0.552,1.375h-0.276c0.024-0.991,0.439-0.91-0.553-0.825c-0.092-0.367-0.184-0.733-0.276-1.101h1.935
		c-0.69-1.085-0.484-0.681-1.658-0.825c0.271-0.827,0.549-0.54-0.276-0.825c0.368-0.184,0.737-0.367,1.105-0.551V44.161z
		 M148.431,65.07c0.093-0.184,0.185-0.367,0.276-0.551C148.582,64.824,148.943,64.728,148.431,65.07z M153.128,68.097v-0.825h0.276
		C153.313,67.546,153.221,67.821,153.128,68.097z M167.496,46.912c-0.093-0.184-0.185-0.367-0.277-0.551
		c0.185-0.092,0.369-0.183,0.553-0.274C167.999,46.764,167.875,46.321,167.496,46.912z M168.324,46.361v-0.274
		c0.185-0.092,0.369-0.184,0.553-0.275h0.829C169.246,45.995,168.785,46.179,168.324,46.361z M189.323,52.414
		c-0.653,0.508-0.095,0.384-0.829,0H189.323z M184.626,45.812c0.093-0.184,0.185-0.367,0.276-0.551h0.276
		C184.994,45.444,184.811,45.628,184.626,45.812z"/>
	<path d="M175.785,137.979c-0.949,1.003-0.115,1.174-1.105,2.751c1.932,0.535,1.752,2.073,3.039,3.026
		c1.473,0.642,2.947,1.284,4.421,1.926c3.419,3.58,9.052,7.566,14.091,10.73c3.039,1.908,7.801,6.075,8.842,5.502
		c0.276,0.275,0.553,0.551,0.829,0.825v0.551c0.854-0.924,0.354-1.209,0.829-2.477v-0.55c0.46,0.274,0.921,0.55,1.381,0.825h0.277
		c-0.277-0.275-0.553-0.551-0.83-0.825c0.928-1.125,0.742-0.135,0.553-1.376c0.829,0.825,1.658,1.651,2.486,2.477h0.277
		c-0.369-1.468-0.737-2.936-1.105-4.402c0.723,0.686,0.427,0.365,0.553,1.101c1.143-1.388-3.381-7.614-4.697-9.354
		c-2.775-3.669-16.705-15.282-20.723-17.058c-2.544-1.124-3.64-0.12-5.803-1.101l-1.934,0.551c-0.092,0.825-0.184,1.65-0.276,2.476
		c-0.46-0.275-0.921-0.55-1.382-0.825c0.211,1.129,0.022,0.776-0.553,1.65c0.553,0.275,1.105,0.551,1.658,0.825
		c-0.143,0.762,0.02,0.322-0.553,1.101c0.369,0.459,0.737,0.918,1.105,1.376c-0.461-0.092-0.921-0.184-1.381-0.275V137.979z
		 M205.901,159.438c0.185,0.091,0.368,0.183,0.553,0.274c-0.185,0.184-0.368,0.367-0.553,0.551V159.438z M200.1,145.132
		c0.184-0.092,0.367-0.184,0.552-0.275c-0.185,0.184-0.368,0.367-0.552,0.55V145.132z M197.889,143.48
		c0.184-0.092,0.368-0.184,0.553-0.274c-0.185,0.183-0.369,0.366-0.553,0.55V143.48z M194.021,140.454
		c0.185-0.092,0.368-0.184,0.552-0.274c-0.184,0.183-0.367,0.366-0.552,0.55V140.454z M178.271,139.629
		c-0.736-0.642-1.475-1.284-2.211-1.926C177.406,138.105,177.854,138.236,178.271,139.629z"/>
	<path d="M128.261,13.347l-3.592,12.105c-3.147,3.825-4.728,12.596-5.802,19.534c1.09-0.338,1.039-0.145,1.381-0.825
		v2.2c0.461-0.183,0.922-0.366,1.382-0.55c-0.276,0.642-0.553,1.284-0.829,1.926v1.101c0.092-0.367,0.184-0.733,0.276-1.101
		c0.802,1.049,0.321,3.062,0,4.127c0.854,0.38,0.845-2.554,1.935-3.577v-0.55c0.584,0.806,0.516,0.973,0,1.926
		c-0.369,1.559-0.737,3.118-1.105,4.677l0.275,0.551c0.185-0.733,0.369-1.468,0.553-2.201c0.185,0.184,0.369,0.367,0.553,0.551
		c-0.048,1.46,0.303,1.092,1.658,1.1v1.101c0.738-1.356,0.902-3.034,2.211-3.852c-0.043,0.708-0.085,0.407,0.275,1.101
		c0.092-0.55,0.185-1.101,0.276-1.65l0.829-0.275c-0.387,1.075-0.185,1.28-0.276,2.201c0.093,0.184,0.185,0.367,0.276,0.55
		c5.221-11.038,9.023-26.643,8.565-42.645c-0.185-0.091-0.368-0.183-0.553-0.274c-0.46,1.467-0.921,2.935-1.382,4.401v0.551
		c-0.092-1.834-0.184-3.669-0.275-5.503c-0.093-0.092-0.185-0.184-0.277-0.274h-0.275c-0.277,1.375-0.553,2.751-0.829,4.126
		l-0.829,0.826c0.604-1.088,1.002-4.015,0.276-5.503c-0.185,1.101-0.368,2.201-0.553,3.302c-0.276,0.275-0.553,0.55-0.829,0.825
		v-1.376h-0.275c-0.553,1.926-1.105,3.853-1.658,5.778c-0.369,0.183-0.737,0.366-1.105,0.55c0.184-1.467,0.369-2.935,0.553-4.402
		C128.319,13.268,128.627,14.27,128.261,13.347z M119.972,43.61v-0.825h0.276C120.156,43.061,120.064,43.335,119.972,43.61z
		 M123.84,47.737c-0.184-0.184-0.368-0.367-0.553-0.55c0.092-0.092,0.185-0.184,0.277-0.275h0.275V47.737z M134.615,15.823h0.277
		c-0.093,0.274-0.185,0.55-0.277,0.825V15.823z"/>
	<path d="M115.019,74.363c-0.953-0.452-1.823-1.022-3.06-2.14c-0.336,1.225-0.006,0.904-1.105,1.375
		c2.566,2.419,6.472,2.593,8.842,3.302l0.829-0.275c-2.559-1.162-3.994-1.585-5.227-2.134c-0.1-0.022-0.2-0.044-0.3-0.066
		L115.019,74.363z"/>
	<path d="M118.037,73.599c-0.663-0.41-0.313-0.166-0.553,0.551c-1.246-0.496-1.136,0.675-2.209-0.551
		c-0.086,0.255-0.172,0.51-0.257,0.765c0.092,0.043,0.186,0.086,0.279,0.128c0.729,0.161,1.458,0.322,2.187,0.483
		c0.123-0.688,1.223-1.146,1.383-1.65c3.496,1.475,15.846,7.738,12.985,10.729c3.319,2.26,4.097,6.791,7.185,9.079
		c-0.684,0.408-0.474,0.213-1.105,0.275c0.46,1.283,0.921,2.567,1.381,3.852c-0.275-0.55-0.553-1.101-0.828-1.65
		c-0.277-0.092-0.553-0.184-0.829-0.275c0.829,1.834,1.657,3.668,2.486,5.503c0.093,0.458,0.185,0.917,0.276,1.375
		c-1.094-0.419-0.187-0.049-0.828-0.825c-0.186,0.275-0.369,0.55-0.553,0.825c0.184,0.367,0.367,0.733,0.553,1.101
		c-0.186-0.184-0.369-0.367-0.553-0.55c0.46,2.476,0.92,4.952,1.381,7.428c-0.368-0.366-0.736-0.733-1.105-1.101
		c0.302,3.813-0.599,3.717-1.105,7.704c-0.568-0.548-0.203-0.446-1.104-0.825c0.745,4.491-10.465,12.076-9.118,17.607
		c-0.612-0.081-0.328-0.298-0.553,0.275c-1.111-0.733-0.395,1.399,0,2.201h-0.828c0.367,0.366,0.736,0.733,1.104,1.101
		c0.737-0.275,1.474-0.551,2.21-0.826c-0.434,0.934,0.215,0.797-1.104,1.376c0.661,1.514,0.16,0.47,1.657,0
		c-0.389,1.648-0.431,1.207-1.657,2.201v0.825c0.093,0.092,0.185,0.184,0.276,0.275c0.645-0.551,1.289-1.101,1.934-1.651
		c-0.275,0.917-0.553,1.835-0.828,2.752c-0.092,0.092-0.185,0.183-0.277,0.274c0.186,0.092,0.369,0.184,0.553,0.275v-1.101
		c1.338,0.77,0.328,0.628,1.658,0c-0.336,1.174,0.785,0.578,1.934,1.101c0.953-2.249,4.84-4.814,5.527-4.952
		c0.846-0.759,0.742-0.227,0.275-1.101c0.774-0.832,0.168-0.369,1.105,0.275c0.071-4.156,4.059-7.899,7.46-11.83
		c3.656-20.011-4.446-28.905-11.881-40.719c-2.437-3.873-9.37-13.913-12.157-10.73c-1.863-2.231-13.17-5.876-14.367-5.227
		c-0.154-0.856,0.311-0.182-0.277-0.826v2.477h-3.039C108.154,71.481,116.562,72.346,118.037,73.599z M131.023,136.053
		c0.563,0.538,0.301,0.096,0.553,1.101C130.854,136.468,131.15,136.788,131.023,136.053z M131.301,138.804l0.275-0.551h0.276
		C131.668,138.437,131.484,138.62,131.301,138.804z M133.511,142.105v-0.551C133.763,142.045,133.78,141.625,133.511,142.105z
		 M144.01,103.313c-0.736-1.65-1.474-3.302-2.21-4.952C143.041,99.851,143.516,101.139,144.01,103.313z M140.142,102.487
		c0.276,0.55,0.553,1.101,0.829,1.65C140.233,103.495,140.254,104.329,140.142,102.487z M127.984,75.8h0.276
		c-0.092,0.275-0.185,0.551-0.276,0.825V75.8z M113.341,69.747c0.092,0.367,0.185,0.734,0.276,1.101h-0.276V69.747z"/>
	<path d="M108.091,69.472c-0.646,0.519,0.494,0.291,0.829,0H108.091z"/>
	<path d="M102.012,73.324c-0.092-0.184-0.184-0.367-0.276-0.551c-0.092,0.184-0.184,0.367-0.276,0.551H102.012z"/>
	<path d="M92.618,101.662c-1.043,1.226-1.427,1.094-2.21,1.375l-0.829,3.026c-0.092,0.184-0.184,0.367-0.276,0.551
		c0.46-0.367,0.921-0.734,1.381-1.101c-0.258,0.831,0.181,0.451,0.829,0.275c-0.063,1.284,0.159,2.226-0.829,2.751
		c1.099,0.804,1.927-0.726,2.487-1.376c1.577,0.509,1.611,0.574,3.039,1.376c5.294-0.818,1.904-3.072,8.013-2.201
		c-1.034-0.73-1.104-0.302-1.381-1.926c0.645,0.55,1.29,1.101,1.934,1.65c1.197-0.733,2.395-1.467,3.592-2.201
		c3.539,0.469,6.085,2.156,6.908,4.678c-0.277-0.184-0.553-0.367-0.83-0.551c0.185,0.643,0.369,1.284,0.553,1.926
		c-0.275-0.274-0.553-0.55-0.828-0.825c0.184,0.825,0.368,1.651,0.553,2.477h-0.277c-0.357-0.821,0.012-0.33-0.553-0.825
		c0.185,0.825,0.369,1.65,0.553,2.476c-0.184-0.274-0.368-0.55-0.553-0.825c-0.092,0.642-0.184,1.284-0.275,1.926h0.553
		c-0.475,0.731,0.039,0.373-0.829,0.275c0.368,2.529,0.144,3.638-0.553,5.228c0.989,0.118,0.192,0.212,0.829-0.551
		c0.584,1.589,0.465,1.695,0.275,3.302c0.798-0.742,1.017-1.541,1.105-3.026c0.092,0.642,0.185,1.284,0.277,1.926h0.275
		c0.276-3.301,0.553-6.604,0.829-9.904c0.185-0.092,0.368-0.184,0.553-0.275c-0.368,2.476-0.737,4.953-1.105,7.429
		c3.245-2.452,0.091-11.849,4.421-12.931c-0.35-2.306-1.341-1.823-1.381-3.853c-0.44,0.146-1.187,0.076-2.075-0.112
		c0.046,0.036,0.092,0.067,0.141,0.112c-0.645-0.183-1.29-0.366-1.935-0.55c0.136,0.039,0.259,0.061,0.376,0.078
		c-2.907-0.843-6.451-2.377-7.007-2.555c-0.889,1.232-2.51,0.875-4.145,2.201c-1.682-0.092-2.661-1.115-2.763-1.65
		c-2.277,1.035-2.701,2.018-4.697,3.302C94.973,103.57,94.291,102.146,92.618,101.662z M113.893,119.545v-1.376
		c0.185,0.367,0.369,0.734,0.553,1.101C114.262,119.361,114.077,119.453,113.893,119.545z M115.275,106.339
		c0.252,0.489,0.27,0.07,0,0.551V106.339z M113.893,104.963c0.093,0.184,0.186,0.367,0.277,0.551
		c-1.25-0.256-0.813,0.038-1.382-0.825C113.156,104.78,113.525,104.871,113.893,104.963z"/>
	<path d="M119.42,46.087c-0.186-0.275-0.369-0.551-0.553-0.826C119.225,46.082,118.855,45.591,119.42,46.087z"/>
	<path d="M100.354,75.525c0.68-0.547,0.361-0.28,0.276-0.826C100.539,74.975,100.447,75.25,100.354,75.525z"/>
	<path d="M115.374,101.465c0.499,0.145,0.975,0.267,1.418,0.36C116.311,101.456,115.925,101.543,115.374,101.465z"/>
	<path d="M111.638,150.053c-0.607,0.004-1.193,0.012-1.761,0.024C110.471,150.154,111.094,150.154,111.638,150.053z"
		/>
	<path d="M119.695,180.072c-0.184-0.184-0.368-0.367-0.553-0.55c-0.184,0.092-0.368,0.183-0.553,0.274
		c0.185,0.184,0.369,0.367,0.553,0.551C119.327,180.256,119.512,180.164,119.695,180.072z"/>
	<path d="M90.408,193.554l-0.097-0.22c0.032,0.256,0.064,0.513,0.097,0.77V193.554z"/>
	<path d="M99.525,203.733c0.185-0.092,0.369-0.184,0.553-0.275c-0.08-0.08-0.161-0.159-0.241-0.239
		c-0.105-0.091-0.208-0.181-0.312-0.272V203.733z"/>
	<path d="M69.961,133.576c0.184-0.184,0.369-0.367,0.553-0.55h-0.553V133.576z"/>
	<path d="M137.932,139.629h-0.829c0.185,0.275,0.368,0.551,0.553,0.825
		C137.747,140.18,137.84,139.904,137.932,139.629z"/>
	<path d="M108.82,165.028c0.125,0.063,0.25,0.125,0.376,0.188C109.11,165.14,108.977,165.08,108.82,165.028z"/>
	<path d="M108.644,164.94c-0.015,0.013-0.022,0.021-0.036,0.032c0.073,0.018,0.148,0.035,0.213,0.056
		C108.762,164.999,108.703,164.97,108.644,164.94z"/>
	<path d="M72.448,21.325c0.092,0.367,0.184,0.733,0.276,1.101h0.276C72.816,22.059,72.632,21.692,72.448,21.325z"/>
	<path d="M75.211,78.552c-0.184,0.458-0.368,0.917-0.552,1.375C75.182,79.402,76.08,78.901,75.211,78.552z"/>
	<path d="M75.211,80.752c-0.092,0.184-0.184,0.367-0.276,0.551l0.552,0.275
		C75.333,80.722,75.798,81.396,75.211,80.752z"/>
	<path d="M77.974,76.351c-0.184-0.184-0.368-0.367-0.553-0.551v0.825C77.606,76.534,77.79,76.442,77.974,76.351z"/>
	<path d="M76.04,78.276c0.391-0.55,0.215-0.422,0.276-0.825C76.224,77.726,76.132,78.001,76.04,78.276z"/>
	<path d="M130.471,178.696l-0.275,0.826C130.875,178.976,130.556,179.242,130.471,178.696z"/>
	<path d="M79.632,74.699c-0.092-0.183-0.184-0.366-0.276-0.55c-0.092,0.184-0.184,0.367-0.276,0.55H79.632z"/>
	<path d="M82.671,47.462c-2.257-7.247-3.987-15.01-8.013-20.634c0.586,4.959,4.404,15.274,7.184,19.809
		C82.119,46.912,82.395,47.188,82.671,47.462z"/>
	<path d="M73.277,23.251v0.825h0.276C73.461,23.802,73.369,23.526,73.277,23.251z"/>
	<path d="M73.83,83.229h-0.829c0.092,0.184,0.184,0.367,0.276,0.55C73.461,83.596,73.646,83.412,73.83,83.229z"/>
	<path d="M73.553,80.478c-0.092,0.458-0.184,0.917-0.276,1.375C73.922,80.919,73.844,81.071,73.553,80.478z"/>
	<path d="M74.382,81.578c-0.184,0.091-0.369,0.183-0.553,0.274v1.101h0.276
		C74.445,82.06,75.223,82.078,74.382,81.578z"/>
	<path d="M73.001,84.604c-0.092-0.275-0.185-0.551-0.276-0.826c-0.092,0.184-0.185,0.367-0.276,0.551
		c0.092,0.092,0.184,0.184,0.276,0.275H73.001z"/>
	<path d="M72.448,81.853c-0.184,0.551-0.369,1.101-0.553,1.651C72.422,82.853,73.189,82.193,72.448,81.853z"/>
	<path d="M107.538,73.874v-0.275h-1.105C106.801,73.69,107.17,73.782,107.538,73.874z"/>
	<path d="M72.448,21.05c-0.184-0.458-0.369-0.917-0.553-1.375c0.092,0.274,0.184,0.55,0.276,0.825v0.55H72.448z"/>
	<path d="M132.405,183.924c0.518-0.794,0.356-0.2,0-1.101V183.924z"/>
	<path d="M132.682,181.173v0.825h0.276C132.865,181.724,132.773,181.448,132.682,181.173z"/>
	<path d="M133.234,185.3c-0.184-0.459-0.369-0.917-0.553-1.376c-0.092,0.275-0.184,0.551-0.276,0.825
		c0.185,0.184,0.368,0.367,0.553,0.551H133.234z"/>
	<path d="M132.682,182.273c-0.184-0.184-0.369-0.367-0.553-0.551c0.092,0.275,0.185,0.551,0.276,0.826
		C132.498,182.457,132.59,182.365,132.682,182.273z"/>
	<path d="M109.196,73.324c-0.729,0.13-0.427-0.182-1.105,0.55c0.645,0.092,1.29,0.184,1.935,0.275v-0.551h-0.553
		c-0.092-0.274-0.185-0.55-0.276-0.825V73.324z"/>
	<path d="M132.129,184.199c-0.275-0.275-0.553-0.55-0.828-0.825c0.092,0.366,0.184,0.733,0.275,1.101
		c-0.635,0.148-0.328,0.062-1.105,0.55v0.275c0.185,0.092,0.369,0.184,0.553,0.275C131.393,185.116,131.761,184.658,132.129,184.199
		z"/>
	<path d="M131.576,186.125v0.825C131.816,186.27,132.309,186.513,131.576,186.125z"/>
	<path d="M132.405,185.024h-0.553C132.345,185.275,131.924,185.293,132.405,185.024z"/>
	<path d="M132.682,87.631c0.276,0.55,0.553,1.1,0.829,1.65c0.092-0.275,0.185-0.551,0.276-0.825
		C133.418,88.181,133.05,87.905,132.682,87.631z"/>
	<path d="M138.76,100.011v1.376c0.277-0.184,0.553-0.367,0.83-0.55C139.313,100.562,139.037,100.286,138.76,100.011z
		"/>
	<path d="M129.09,82.678v0.826c0.184-0.092,0.368-0.184,0.553-0.275C129.458,83.045,129.273,82.861,129.09,82.678z"
		/>
	<path d="M131.023,86.255c0.185-0.092,0.369-0.184,0.553-0.275c-0.184-0.184-0.368-0.366-0.553-0.55V86.255z"/>
	<path d="M130.471,82.678h0.277c-0.31-2.178-2.262-3.126-3.04-3.852c-0.092,0.367-0.185,0.734-0.276,1.101
		C128.642,81.048,129.99,81.463,130.471,82.678z"/>
	<path d="M128.537,81.853c-0.092,0.184-0.184,0.367-0.276,0.551h0.829C128.906,82.22,128.721,82.036,128.537,81.853z
		"/>
	<path d="M94.552,73.599l2.21,0.551v-2.201c-0.092,0.55-0.185,1.101-0.276,1.65H94.552z"/>
	<path d="M62.778,161.364c0.552,0.183,1.105,0.366,1.658,0.55C63.873,161.347,63.949,161.449,62.778,161.364z"/>
	<path d="M51.449,173.744c0.391-0.549,0.215-0.422,0.276-0.825C51.634,173.194,51.542,173.47,51.449,173.744z"/>
	<path d="M46.752,173.47c-0.185-0.184-0.369-0.367-0.553-0.551c-0.092,0.184-0.184,0.367-0.276,0.551H46.752z"/>
	<path d="M45.094,174.845c-0.092-0.184-0.184-0.366-0.276-0.55c-0.092,0.184-0.185,0.366-0.276,0.55H45.094z"/>
	<path d="M9.728,152.835c0.492,0.251,0.07,0.269,0.553,0H9.728z"/>
	<path d="M48.134,170.443h-0.829c-0.092,0.092-0.184,0.183-0.276,0.274v0.275l0.552,0.275
		C47.765,170.993,47.95,170.718,48.134,170.443z"/>
	<path d="M48.134,172.369h-0.553c-0.184,0.274-0.368,0.55-0.552,0.825C47.397,172.919,47.765,172.644,48.134,172.369
		z"/>
	<path d="M211.98,92.857c-1.641,0.32-3.314-1.051-4.145-2.476c-0.185-0.184-0.369-0.367-0.553-0.551h1.657
		c0.276-0.092,0.553-0.183,0.829-0.274c-1.042-2.422-2.049-1.737-4.145-2.201c-2.025,0.366-4.053,0.733-6.078,1.101
		c-5.701,4.146-21.509,7.296-26.249,8.804h0.829l-3.592,3.026c0.46,0.367,0.921,0.733,1.381,1.101
		c-0.553,0.367-1.105,0.733-1.658,1.101c0.186,0.55,0.369,1.101,0.553,1.65c-0.71,0.26-0.301-0.217-0.828,0.825
		c0.857-0.141-0.027,0.254,1.381,0.275c0.092,0.367,0.185,0.733,0.277,1.101c-1.331,0.459-2.255,0.571-3.04,1.65
		c1.474-0.458,2.947-0.917,4.421-1.375h1.105c0.42,2.208,0.603,2.278-0.276,3.852v0.275c0.829-0.184,1.657-0.367,2.486-0.551
		c-0.276,0.184-0.552,0.367-0.829,0.551c0.277,0.092,0.553,0.184,0.829,0.274c0.955,1.445,3.976-1.941,6.354-1.375
		c2.133,0.508,17.506-4.62,21.828-6.604c3.014-1.382,4.045-3.82,8.013-4.401V98.36c-0.739-0.536-0.764-0.216-1.657,0
		c0.092-0.642,0.184-1.284,0.275-1.926c-0.742,0.145-0.51,0.762-0.828,0c-0.185-0.092-0.369-0.184-0.553-0.275
		c1.013-0.275,2.026-0.55,3.039-0.825C212.494,93.312,211.953,94.545,211.98,92.857z"/>
	<path d="M62.778,109.641v0.825h0.276C62.962,110.19,62.87,109.915,62.778,109.641z"/>
	<path d="M60.567,166.316h-0.553v0.55C60.199,166.683,60.383,166.5,60.567,166.316z"/>
	<path d="M61.949,127.523v0.825h0.276C62.133,128.074,62.041,127.799,61.949,127.523z"/>
	<path d="M8.347,156.137c0.184,0.366,0.368,0.733,0.552,1.101h0.276C8.899,156.87,8.623,156.503,8.347,156.137z"/>
	<path d="M71.343,85.154c0.185,0.275,0.369,0.55,0.553,0.825C71.631,85.244,72.182,85.688,71.343,85.154z"/>
	<path d="M64.988,163.84h0.276c-0.092-0.275-0.184-0.55-0.276-0.825V163.84z"/>
	<path d="M61.12,71.948h-0.552C61.059,72.199,60.638,72.217,61.12,71.948z"/>
	<path d="M70.791,84.879c-0.185,0.092-0.369,0.184-0.553,0.275h0.829c-0.092-0.275-0.185-0.55-0.276-0.825V84.879z"
		/>
	<path d="M69.961,86.255c0.184-0.184,0.369-0.367,0.553-0.551c-0.184-0.183-0.369-0.366-0.553-0.55V86.255z"/>
	<path d="M70.514,87.355c0.131-0.256,0.434-0.122,0-0.825c-0.184,0.458-0.369,0.917-0.553,1.375
		C70.691,87.626,70.185,88.043,70.514,87.355z"/>
	<path d="M39.568,185.85h-0.553C39.508,186.101,39.086,186.119,39.568,185.85z"/>
	<path d="M71.343,18.299v0.551h0.276c-0.381-1.045,0.007-0.569-0.829-1.101
		C70.975,17.932,71.159,18.115,71.343,18.299z"/>
	<path d="M67.751,164.665h-0.276c-0.092,0.643-0.184,1.284-0.276,1.926h-0.276v-1.926h-1.382
		c-0.313-0.592-5.998,3.316-7.184,4.127c0.363-1.529,0.214-0.496,1.105-1.375h0.553c-0.737-0.848-0.766,0.237-1.105-1.376
		c1.027,0.516,1.822-0.913,3.868-1.101c-0.471-1.259-0.461-0.383,0.276-1.376c-0.092-0.274-0.184-0.55-0.276-0.825
		c-1.478,0.117-2.625,1.345-4.697,2.201c1.381-1.009,2.763-2.018,4.145-3.026c0.184-0.092,0.368-0.184,0.553-0.275
		c-1.613-0.632-2.623-0.461-2.763-1.375c-4.17,3.406-9.141,4.885-9.947,10.454c-0.184-0.092-0.369-0.183-0.553-0.274
		c0.241-0.963-0.129-0.516,0.553-0.826c-0.184-0.366-0.369-0.733-0.553-1.1c-0.46,0.55-0.921,1.101-1.381,1.65
		c1.063,0.007,0.685-0.244,1.105,1.101c-1.033,0.405-0.582-0.2-1.105,0.55c-0.184-0.092-0.369-0.184-0.553-0.274
		c0.858,0.772,0.892,0.329,1.934,0c-0.921,1.1-1.842,2.2-2.763,3.301c0.092,0.092,0.184,0.184,0.276,0.275
		c2.118-1.65,4.236-3.302,6.354-4.952c0.185,0.642,0.369,1.284,0.553,1.926c-0.184,0.184-0.368,0.367-0.553,0.55
		c-0.125-1.106-0.087-1.072-0.552-1.65v2.477c-0.092-0.734-0.185-1.468-0.276-2.201h-0.276c-0.092,0.917-0.184,1.834-0.276,2.751
		c-1.163-0.23-0.237,0.244-1.105-0.55c-0.724,4.231-5.592,3.72-6.631,7.428c-0.092-0.274-0.184-0.55-0.276-0.825
		c-1.137,1.17-1.129,0.716-1.105,1.926c-0.968-0.486-0.344-0.513-1.105,0H40.95v1.101c0.276-0.275,0.552-0.55,0.829-0.825
		c-0.276,0.55-0.553,1.101-0.829,1.65c0.092,0.367,0.184,0.734,0.276,1.101c1.747-1.175,2.021-1.294,3.592-2.201l-0.829,0.826v1.1
		c0.276-0.274,0.553-0.55,0.829-0.825c-0.185,0.643-0.369,1.284-0.553,1.926c0.276-0.274,0.553-0.55,0.829-0.825
		c0.369-0.184,0.737-0.366,1.105-0.55c-0.369,0.092-0.737,0.184-1.105,0.274c0.499-0.555-0.006-0.203,0.829-0.55v-0.825
		c0.184,0.366,0.369,0.733,0.553,1.101c0.44-1.473,19.059-13.508,19.617-13.757c0.092-0.092,0.184-0.183,0.276-0.274
		c0.46,0.092,0.921,0.183,1.381,0.274v-3.026c-0.092,0.825-0.184,1.651-0.276,2.477h-1.934c-0.092-0.733-0.184-1.468-0.276-2.201
		c0.921-0.275,1.842-0.55,2.763-0.825C67.935,166.316,67.843,165.49,67.751,164.665z M49.792,172.369v-1.376
		c0.558,0.496,0.205-0.006,0.553,0.825C50.16,172.002,49.976,172.186,49.792,172.369z M52.278,168.792
		c-0.184-0.092-0.369-0.184-0.553-0.274c-0.092,0.183-0.184,0.366-0.276,0.55c0.092-0.55,0.185-1.101,0.276-1.65
		c0.184,0.183,0.369,0.366,0.553,0.55V168.792z M52.831,169.893c0.092-0.275,0.184-0.55,0.276-0.825
		c0.092,0.092,0.185,0.184,0.276,0.275C53.199,169.526,53.015,169.709,52.831,169.893z M41.779,184.199v-1.101
		c0.092,0.367,0.184,0.733,0.276,1.101H41.779z M56.146,167.967h0.276c-0.092,0.275-0.184,0.551-0.276,0.825V167.967z
		 M54.489,172.094c-0.184-0.733-0.369-1.468-0.553-2.201c0.184-0.092,0.369-0.184,0.553-0.275v1.651
		c0.595-0.805,0.387-0.677,0.276-1.926c0.276,0.274,0.552,0.55,0.829,0.825c0.092-0.184,0.185-0.367,0.276-0.551
		c-0.092-0.366-0.184-0.733-0.276-1.1c0.757,0.617,0.354,0.408,1.105,0.55C56.268,170.893,55.354,170.829,54.489,172.094z
		 M56.976,169.893c0.318-0.835,0.209-0.705,0.552-1.375h0.276C57.495,169.513,57.586,169.325,56.976,169.893z M58.081,167.142
		c0.092-0.184,0.184-0.367,0.276-0.551C58.232,166.896,58.594,166.799,58.081,167.142z"/>
	<path d="M70.791,86.53c0.276-0.092,0.552-0.184,0.829-0.275l-0.552-0.551C70.975,85.979,70.882,86.255,70.791,86.53
		z"/>
	<path d="M40.674,184.749c-0.092,0.184-0.185,0.367-0.276,0.551c0.184,0.092,0.368,0.184,0.553,0.275
		C40.858,185.3,40.766,185.024,40.674,184.749z"/>
	<path d="M53.107,145.957c-0.645,0.184-1.289,0.367-1.934,0.55c0.426-1.615-0.018-1.249-0.552-2.476h0.552
		c1.013-0.275,2.026-0.551,3.04-0.825c-0.9-0.992-0.768-0.537-0.829-1.927c-1.579-0.71-2.283-0.783-4.145-0.274v-0.551
		c-0.299-0.817-0.312-0.182,0.276-0.825c-0.092-0.275-0.184-0.55-0.276-0.825c-0.743-0.145-0.509-0.762-0.829,0
		c-0.184-0.184-0.369-0.367-0.553-0.551c0.829-0.183,1.658-0.366,2.487-0.55v-0.825c-0.553,0.275-1.105,0.55-1.658,0.825
		c-1.3-1.445-1.165-1.563-3.04-2.201c-5.581,3.466-12.787,2.793-19.341,6.053c-4.329,2.201-8.658,4.402-12.986,6.604
		c0.184,0.366,0.369,0.733,0.553,1.101l-1.381-0.551c0.037,1.18-1.101,2.221-2.487,2.751c0.276,0.459,0.553,0.918,0.829,1.376
		c-1.639,1.219-2.485,3.82-0.829,4.952c-0.671,0.991-0.811,0.977-1.658,1.101c0.888,0.694,2.509-0.253,3.868-0.825
		c0.643,0.898,0.504,1.108,1.105,1.376c0.184,0.183,0.369,0.366,0.553,0.55c-0.052,1.774,0.003,1.468-1.105,2.201
		c0.854,0.294,1.126,0.061,1.934-0.275h0.276c-0.502,0.972,0.161,0.335-0.829,0.825v0.275c2.895,0.036,2.635-0.154,3.868-1.101
		c-0.092,0.275-0.184,0.551-0.276,0.825c7.644-3.668,15.29-7.337,22.933-11.005C44.387,150.368,51.035,148.946,53.107,145.957z
		 M13.32,159.163h-0.276c-0.092-0.459-0.184-0.917-0.276-1.376c0.276-0.184,0.553-0.367,0.829-0.55h1.105
		C13.734,158.384,13.59,157.302,13.32,159.163z"/>
	<path d="M43.989,185.85h-0.553v0.551C43.621,186.217,43.805,186.033,43.989,185.85z"/>
	<path d="M40.397,182.549c-0.092,0.274-0.184,0.55-0.276,0.825c0.092,0.275,0.184,0.55,0.276,0.825V182.549z"/>
	<path d="M40.397,185.575h-0.553C40.336,185.826,39.915,185.844,40.397,185.575z"/>
	<path d="M39.568,184.749c0.184-0.091,0.369-0.183,0.553-0.274c-0.184-0.367-0.369-0.734-0.553-1.101V184.749z"/>
	<path d="M98.973,121.746c0.558-0.496,0.205,0.006,0.552-0.825h-0.552V121.746z"/>
	<path d="M100.354,136.053c-0.995,2.14,0.077,3.429,0.276,6.603c0.276-0.366,0.553-0.733,0.829-1.101
		c0.092,1.101,0.185,2.201,0.276,3.302h0.276c0.184-1.559,0.369-3.118,0.553-4.677h0.276v3.301l0.552,0.275
		c0.143-3.316-0.255-7.384-2.21-9.904c0.089,1.835-0.185,2.59-0.276,3.576C100.342,136.875,100.514,137.155,100.354,136.053z"/>
	<path d="M85.71,79.377v0.825h0.276C85.895,79.927,85.803,79.651,85.71,79.377z"/>
	<polygon points="93.723,142.105 94.552,142.105 94.552,141.83 93.171,141.555 	"/>
	<path d="M90.131,106.063c-0.184,0.275-0.368,0.551-0.553,0.826C90.154,106.5,90.646,106.771,90.131,106.063z"/>
	<path d="M99.802,126.423v0.825c0.092,0.092,0.185,0.184,0.276,0.275c0.767-0.995,0.41-3.233-0.276-4.402V126.423z"
		/>
	<path d="M73.83,120.921v0.825h0.276C74.014,121.471,73.922,121.195,73.83,120.921z"/>
	<path d="M130.748,178.422c0.092-0.275,0.184-0.551,0.275-0.825h-0.553
		C130.563,177.871,130.655,178.146,130.748,178.422z"/>
	<path d="M85.987,80.478c-0.092,0.274-0.184,0.55-0.276,0.825C86.06,80.872,86.826,80.719,85.987,80.478z"/>
	<path d="M100.354,147.607c0.184-0.274,0.369-0.55,0.553-0.825h-1.105
		C99.986,147.058,100.17,147.333,100.354,147.607z"/>
	<path d="M104.775,146.782h0.276v-1.101l-1.658-0.275C104.117,146.375,104.179,145.558,104.775,146.782z"/>
	<path d="M99.525,126.423h0.276c-0.092-0.275-0.184-0.55-0.276-0.825V126.423z"/>
	<path d="M104.223,146.232c-0.748,0.445-0.596,0.274-1.381,0.274v1.101l1.381-0.275V146.232z"/>
	<path d="M101.184,130c-0.185-0.917-0.369-1.835-0.553-2.752c0.092,0.917,0.184,1.835,0.276,2.752H101.184z"/>
	<path d="M102.841,145.682c-0.092,0.184-0.184,0.367-0.276,0.551c0.276,0.091,0.553,0.183,0.829,0.274
		C103.209,146.232,103.025,145.957,102.841,145.682z"/>
	<path d="M73.277,126.974l-0.552-0.551c-0.092,0.092-0.185,0.184-0.276,0.275v0.275
		c0.184,0.092,0.368,0.183,0.553,0.274C73.093,127.156,73.185,127.065,73.277,126.974z"/>
	<path d="M110.025,190.252h-0.829c0.092,0.184,0.185,0.367,0.276,0.55
		C109.656,190.619,109.841,190.436,110.025,190.252z"/>
	<path d="M106.986,188.876h-0.553C106.925,189.127,106.503,189.146,106.986,188.876z"/>
	<polygon points="111.131,190.802 111.131,191.628 111.406,191.628 	"/>
	<path d="M106.986,184.475h-1.105c0.369,0.092,0.737,0.184,1.105,0.274V184.475z"/>
	<path d="M112.788,185.3c-0.093,0.184-0.185,0.367-0.276,0.55h0.829C113.156,185.667,112.973,185.483,112.788,185.3z
		"/>
	<path d="M113.064,188.602c-0.092-0.275-0.185-0.551-0.276-0.826v0.826H113.064z"/>
	<path d="M112.235,188.876c0.737,0.367,1.474,0.734,2.21,1.101C113.863,189.206,113.352,189.113,112.235,188.876z"/>
	<path d="M85.158,175.12c0.357,0.821-0.012,0.33,0.552,0.825C85.526,175.67,85.342,175.396,85.158,175.12z"/>
	<path d="M85.987,176.771c-0.184-0.092-0.368-0.183-0.553-0.274v1.375C85.998,177.333,85.735,177.775,85.987,176.771
		z"/>
	<path d="M71.067,135.777c0.276-0.184,0.552-0.367,0.829-0.551h-0.553C71.251,135.41,71.159,135.594,71.067,135.777z
		"/>
	<path d="M86.263,182.549c-0.092,0.183-0.184,0.366-0.276,0.55c0.184,0.092,0.369,0.184,0.553,0.275
		C86.447,183.099,86.355,182.823,86.263,182.549z"/>
	<path d="M126.604,199.056h-0.553C126.542,199.307,126.121,199.325,126.604,199.056z"/>
	<path d="M125.773,186.125c0.498-0.634-0.533-0.487,0.277-1.376c-0.092,0.184-0.185,0.367-0.277,0.551
		c0.277-0.184,0.553-0.367,0.83-0.551c-0.988-0.529-0.915-0.39-1.935,0.275c-0.502-0.972,0.161-0.335-0.829-0.825
		c0.666-0.531,1.199-0.268,2.486-0.55c-0.264-0.735,0.287-0.291-0.553-0.826c0.334-1.274,1.541-2.121,1.935-2.751
		c0.185-0.184,0.368-0.367,0.553-0.55c-0.882-0.908-0.663-0.387-1.935-0.826c0.185,0.459,0.369,0.918,0.553,1.376
		c-0.184-0.275-0.368-0.55-0.553-0.825c-1.242,0.034-4.302,1.362-4.696,1.926c-0.878-0.615-0.828-0.588-3.593-0.55l-0.275-0.551
		c0.678-0.543,0.109-0.158,0.828-0.275c-0.973-1.842-6.933-0.687-6.907-1.101c-0.368-0.183-0.737-0.366-1.104-0.55
		c0.184,0.275,0.368,0.55,0.553,0.825c-2.219-1.384-3.749-1.354-7.461-1.375c-0.092-0.092-0.184-0.184-0.276-0.275v-0.825
		l0.829-0.275c0.923-0.487,10.918,2.949,12.986,0.825c0.275-0.184,0.553-0.367,0.828-0.55c-1.023,0.054-1.439-0.198-1.381,0.825
		c-0.921-0.367-1.842-0.733-2.764-1.101c0.185,0.275,0.369,0.55,0.553,0.825c-2.161-0.222-2.051-0.27-3.592-1.376
		c0.092,0.275,0.185,0.551,0.277,0.826c-2.096-0.727-2.52-0.121-4.974-1.101c0.184,0.274,0.369,0.55,0.553,0.825
		c-0.46-0.367-0.921-0.733-1.381-1.101c0.184,0.367,0.368,0.733,0.552,1.101c-1.258-0.844-0.85-0.934-2.21-0.551
		c-0.092-0.825-0.184-1.65-0.276-2.476v-0.275c3.696-1.192,7.931,0.251,8.289-0.55c0.472,0.396,0.858,0.344,0.276,0.55h1.934
		c0.277-0.184,0.553-0.366,0.83-0.55c-1.475-0.367-2.947-0.734-4.422-1.101c0.093-0.184,0.185-0.367,0.277-0.551
		c0.914,0.299,2.352,0.627,2.763,0h0.829c-1.514-0.797-2.986-0.611-3.898-1.199c-0.167-0.067-0.233-0.126-0.27-0.164
		c-0.177,0.088-0.354,0.176-0.529,0.263c0.537-0.322,0.449-0.35,0.529-0.263l0.023-0.012c0.074,0.069,0.161,0.121,0.246,0.176
		c0.078,0.032,0.178,0.065,0.307,0.099c0.344-0.471,0.365-0.72,0.828-1.1c0.185-0.275,0.369-0.551,0.553-0.826
		c-1.14-0.783-1.57-0.059-2.854-0.732c-0.141,0.079-0.289,0.213-0.461,0.458c0.092-0.184,0.185-0.367,0.276-0.551
		c0.067,0.04,0.122,0.06,0.185,0.093c0.43-0.239,0.784,0.046,1.474-0.643c-0.645,0.063-2.619-0.36-3.316-1.101
		c0.939,0.136,0.703,0.345,1.346-0.243c-0.993-0.237-2.739-0.174-3.279-0.308v1.101h-3.592c0.165,0.933,0.217,0.659-0.276,1.376
		c-0.078-1.596-2.31-5.072-3.315-5.503c-0.654-1.162-0.811-1.693,0.829-2.2c0.92-0.694,3.168-0.209,3.868-0.275
		c-0.569,1.237-1.239,1.014-2.763,0.55c-0.267,0.525,0.434,0.515,0.553,1.376c0.77-0.3,3.832-0.758,7.46,0
		c-0.46,0.092-0.921,0.184-1.381,0.275c0.921,0.092,1.842,0.183,2.763,0.274c-0.276-0.092-0.553-0.183-0.829-0.274v-0.275
		c2.92,0.004,3.821,0.108,5.802,0.275c0.185-0.275,0.369-0.551,0.553-0.826h-3.592c0.498-0.555-0.006-0.203,0.829-0.55v-0.825
		c-1.177-0.874-9.541-0.952-9.947-0.275h-1.105c0.623-1.954,0.796-2.576,0.276-3.576c1.826-3.38-4.134-3.311-4.145-3.302
		c-0.493-1.101-0.178-0.971-1.105-1.926c0.553-0.092,1.105-0.184,1.658-0.275c0.276,0.642,0.553,1.284,0.829,1.926
		c3.421-1.17,6.728-1.56,11.18-1.657c-0.727-0.095-1.399-0.293-1.786-0.544h4.697c-0.26,0.271-0.676,0.431-1.15,0.52
		c1.678-0.011,3.513,0.006,5.571,0.031c-1.014-0.092-2.026-0.184-3.039-0.275v-0.825c0.092,0.184,0.184,0.367,0.275,0.55h2.487
		v-0.825l-4.421,0.275l0.829,0.275c-2.604-0.288-5.845-0.662-6.355-1.376c-0.715-0.332-0.437,0.274-0.829-0.825
		c1.373,0.613,2.392,0.965,3.316,1.375c-0.41-0.73-0.563-0.849-1.105-1.375c0.602-0.312,1.213-0.365,1.658-0.825
		c-1.467,0.35-2.482-0.016-4.697-0.551c0.184,0.642,0.368,1.284,0.552,1.926c-1.111-0.596-1.123-0.565-2.21,0.275
		c-0.615,0.691-0.358,0.159-0.276,1.101c-0.184-0.367-0.368-0.733-0.552-1.101c-1.172,0.657-2.111,0.8-2.763,1.65
		c-0.413,0.746-0.081,0.032,0.276,0.826c-0.368,0.274-0.737,0.55-1.105,0.825v-1.376c-0.717-0.119-0.15,0.263-0.829-0.275
		c0.919-0.733,2.769-1.613,4.145-1.65c-0.281-0.727,0.138-0.223-0.553-0.551c-0.47-0.567-1.213,0.235-3.039,1.101v-1.926
		l-1.658,0.275c0.553-0.275,1.105-0.55,1.658-0.825c-0.092-0.917-0.185-1.834-0.276-2.751c-0.092,0.458-0.184,0.917-0.276,1.375
		c-0.833-1.311-1.124-0.979-1.658-2.201c-1.563,0.339-1.926,0.225-3.04,0.275c-0.276-0.366-0.552-0.733-0.829-1.101
		c0.368-0.092,0.737-0.184,1.105-0.275v-0.274c-0.577-0.461-0.544-0.439-1.658-0.551v-0.274c0.553-0.092,1.105-0.184,1.658-0.275
		c-1.629-0.897-4.871-2.283-6.631-2.477v-0.274c0.461-0.184,0.921-0.367,1.382-0.551c-1.022-1.621-1.22-1.313-1.105-2.476h-6.079
		c-0.566-1.739-2.588-3.758-3.868-6.053c-0.534-0.688,0.039-0.382-0.829-0.275c-0.847-1.969-1.141-5.503-2.21-7.979
		c-0.509,2.518-1.063,3.706,0.276,7.153c-0.61,1.879-2.254,5.321-4.145,4.952c-0.092,0.366-0.185,0.733-0.276,1.101
		c0.703-0.037,0.322,0.03,1.105-0.275h0.276c-0.377,1.218,0.201,0.56-0.829,1.101c0.679,1.027,0.04,0.679,1.105,0.55
		c0.417,0.473,0.425,0.94,0.553,2.477c0.552-0.275,1.105-0.551,1.658-0.825c-0.837,3.431-0.14,5.68,2.487,7.703
		c-0.092-0.184-0.185-0.367-0.276-0.55c0.545,0.943,0.314,0.321,0,1.375c0.967-0.237,0.365,0.328,0.829-0.55
		c1.059,1.603,2.447,2.623,4.697,3.301v1.101c0.184,0.184,0.369,0.367,0.553,0.551v-1.376c1.014,0.557,0.853,0.673,0.829,2.201
		c0.185-0.275,0.369-0.55,0.553-0.825c0.465,1.334,0.398,1.81,1.658,2.201c0.12,0.714-0.264,0.148,0.276,0.825
		c-0.092-0.551-0.184-1.101-0.276-1.65c3.193,2.815-0.077,9.434,2.487,12.931c-1.013,0.229-0.042,0.134-1.105-0.275
		c0.684,1.508,0.621,2.157,0.552,5.228h-0.276c-0.226-1.456-0.215-1.444,0.276-2.477c-0.184-0.55-0.368-1.101-0.552-1.65
		c-1.524,3.175-1.736,8.852-0.276,11.28h-0.829c0.877,1.554,1.033,5.938,0.276,6.053c0.425,0.896-0.142,0.325,0.829,0.55
		c-0.276,0.733-0.553,1.468-0.829,2.201h0.829c0,0,0.006,0.006,0.276-0.275c0.185,0.734,0.369,1.468,0.553,2.201
		c-0.276-0.366-0.553-0.733-0.829-1.101c-0.185-0.092-0.369-0.184-0.553-0.275c1.257,2.861,2.514,5.724,3.771,8.585
		c-0.244-1.944-0.488-3.89-0.732-5.833c0.185-0.092,0.369-0.184,0.553-0.275c0.184,0.275,0.369,0.551,0.553,0.825
		c-0.698,1.057,0.09,1.562,0.553,2.477c-0.21,0.749,0.178,0.826-0.553,0.55c0.737,2.385,1.474,4.77,2.21,7.153
		c1.3,0.158,2.083,0.918,3.039,0.275c0.546,1.367,1.954,2.988,3.592,4.44v-0.038l0.312,0.311c1.661,1.425,3.513,2.656,4.938,3.266
		c-0.607-1.104,0.516-1.019-0.829-1.101v-1.101c7.779-0.763,9.77,1.032,15.749-0.275c0.092-0.183,0.185-0.366,0.276-0.55
		c-0.368,0.092-0.737,0.184-1.104,0.275c1.201-1.148,1.243-0.78,2.21-0.551c1.104-0.917,2.21-1.834,3.315-2.751v-0.275
		c-0.461,0.275-0.921,0.551-1.381,0.825c1.527-2.32,2.469-3.397,2.21-5.227l0.829-0.826c-0.092,0.459-0.185,0.918-0.277,1.376
		c1.309-0.054,0.787-0.136,1.658,0.275c0.25-3.192,0.693-3.416,0.276-6.878c0.587-0.131,0.47-0.17,1.382-0.551
		C129.354,188.31,126.904,186.652,125.773,186.125z M109.748,170.718h0.277c-0.092,0.275-0.185,0.551-0.277,0.826V170.718z
		 M109.196,171.544v-0.826h0.276C109.381,170.993,109.288,171.269,109.196,171.544z M109.196,169.617
		c-0.825-0.355-0.331,0.012-0.829-0.55C108.644,169.251,108.92,169.435,109.196,169.617z M108.92,171.269
		c-0.549-0.062-0.129-0.354-0.553,0c-0.276-0.275-0.553-0.551-0.829-0.825C108.788,170.699,108.352,170.404,108.92,171.269z
		 M108.644,172.094c-0.846,0.27-0.771,0.315-1.382-0.275C107.723,171.91,108.184,172.002,108.644,172.094z M109.748,159.713h1.383
		c-0.523,1.048-0.208,0.089-1.383,0.825V159.713z M103.394,158.612c0.092,0.459,0.185,0.917,0.276,1.376h-0.276V158.612z
		 M99.525,155.586h1.382v0.275c-0.46,0.184-0.921,0.367-1.382,0.551V155.586z M73.001,134.401c-0.092-0.274-0.185-0.55-0.276-0.825
		c0.558,0.496,0.205-0.006,0.552,0.825H73.001z M74.935,140.454v-1.101c0.092,0.367,0.184,0.734,0.276,1.101H74.935z
		 M86.263,149.533l0.829,0.826C86.286,149.705,86.663,150.631,86.263,149.533z M87.092,169.343v-0.825h0.276
		C87.276,168.792,87.184,169.067,87.092,169.343z M87.645,171.818v-0.825h0.276C87.829,171.269,87.737,171.544,87.645,171.818z
		 M89.303,158.338c-0.563-0.538-0.301-0.097-0.553-1.101C88.934,157.604,89.118,157.971,89.303,158.338z M88.474,165.216
		c0.276-1.284,0.553-2.568,0.829-3.852c0.568,0.855,0.342,1.419,0.276,3.026C89.21,164.665,88.842,164.94,88.474,165.216z
		 M89.579,175.67v-1.1c0.092,0.366,0.185,0.733,0.276,1.1H89.579z M90.684,160.264v-0.825h0.276
		C90.868,159.713,90.776,159.988,90.684,160.264z M94,195.755v-1.101c0.092,0.366,0.184,0.733,0.276,1.101H94z M97.591,164.94
		h-0.276c-0.723-1.954-1.18-2.264-0.276-3.852c0.184,0.184,0.368,0.367,0.552,0.55C97.4,161.972,97.662,163.1,97.591,164.94z
		 M97.591,162.465c0.092-0.184,0.185-0.367,0.276-0.551h0.276C97.96,162.098,97.776,162.281,97.591,162.465z M117.484,180.348
		c-0.744-0.409-0.667-0.019-1.381-0.825C116.564,179.797,117.025,180.072,117.484,180.348z M115.275,179.247
		c0.184,0.275,0.367,0.55,0.552,0.825c-1.384,0.085-3.653,0.445-4.974-0.825H115.275z M116.104,181.448
		c-0.092,0.274-0.184,0.55-0.276,0.825v-0.825H116.104z M115.551,182.273c-0.885-0.73-0.492-0.671-1.381,0
		c-0.092-0.367-0.185-0.733-0.277-1.101c0.369,0.092,0.737,0.184,1.105,0.275C115.334,181.657,115.363,181.299,115.551,182.273z
		 M113.617,180.897c-0.092,0.367-0.185,0.734-0.276,1.101c-0.185-0.366-0.368-0.733-0.553-1.101H113.617z M110.301,180.897
		c0.093,0.275,0.185,0.551,0.277,0.825c-0.559-0.496-0.205,0.007-0.553-0.825H110.301z M108.091,178.696h1.105
		c0.185,0.275,0.368,0.551,0.552,0.826h-1.657c-0.092-0.184-0.185-0.367-0.276-0.551
		C107.906,178.88,107.999,178.788,108.091,178.696z M109.196,180.623c-0.093,0.366-0.185,0.733-0.276,1.1
		c-0.184-0.366-0.369-0.733-0.553-1.1h0.276C108.986,181.055,108.691,180.846,109.196,180.623z M107.538,178.696
		c-0.783,0.271-0.132,0.448-0.829,0H107.538z M107.538,180.348c-0.092,0.275-0.185,0.55-0.276,0.825v-0.825H107.538z
		 M104.223,172.369h-0.276v-2.201C104.756,171.381,104.425,170.83,104.223,172.369z M105.052,169.067h0.276
		c-0.092,0.275-0.185,0.55-0.276,0.825V169.067z M104.775,169.067v0.825c-0.46-0.092-0.921-0.184-1.382-0.275v-0.274
		c0.369-0.092,0.737-0.184,1.105-0.275H104.775z M103.118,166.316h0.276c0.092,0.274,0.185,0.55,0.276,0.825l-0.552,0.275V166.316z
		 M103.394,179.797c0.092,0.092,0.185,0.184,0.276,0.275l-0.552,0.551C103.209,180.348,103.302,180.072,103.394,179.797z
		 M102.012,186.125h-0.276c-0.092-0.55-0.184-1.101-0.276-1.65C102.029,185.034,101.926,184.959,102.012,186.125z M99.802,165.766
		v-0.825c0.185,0.184,0.369,0.367,0.553,0.551C100.17,165.582,99.986,165.674,99.802,165.766z M101.736,202.357
		c-0.092-0.275-0.184-0.55-0.276-0.825c0.558,0.496,0.205-0.007,0.553,0.825H101.736z M101.736,197.955
		c0.845,0.863,0.812,1.483,1.105,2.752C101.771,199.53,101.95,199.04,101.736,197.955z M103.394,205.108v-0.825h0.276
		C103.578,204.559,103.486,204.834,103.394,205.108z M103.946,192.178l0.829,0.275C103.915,192.606,104.552,192.805,103.946,192.178
		z M105.052,201.257c-0.184-0.366-0.369-0.733-0.553-1.101l0.829,0.551C105.236,200.891,105.144,201.073,105.052,201.257z
		 M108.367,201.257v-0.55c1.067-0.077,0.333,0.232,1.105-0.275c1.105,0.184,2.211,0.367,3.315,0.55
		c0.185,0.367,0.368,0.734,0.553,1.101C112.002,201.815,110.244,201.171,108.367,201.257z M113.893,191.902v-0.274
		c0.185-0.092,0.369-0.184,0.553-0.275C114.262,191.536,114.077,191.72,113.893,191.902z M114.998,198.781v-0.551
		C115.25,198.721,115.269,198.301,114.998,198.781z M114.998,191.353v-0.551C115.25,191.292,115.269,190.872,114.998,191.353z
		 M115.551,188.051c-0.184,0.092-0.368,0.184-0.553,0.275c-0.092-0.733-0.184-1.468-0.275-2.201c0.518,0.104,1.035,0.207,1.554,0.31
		c0.034-0.011,0.069-0.022,0.104-0.034c0.017,0.021,0.032,0.043,0.049,0.064c0.353,0.07,0.704,0.141,1.056,0.211
		c-0.092,0.274-0.184,0.55-0.275,0.825c-0.26-0.346-0.521-0.691-0.78-1.036c-0.051-0.01-0.102-0.02-0.152-0.03
		c-0.242,0.081-0.483,0.161-0.726,0.241c0.276,0.366,0.553,0.733,0.829,1.1C115.507,187.811,116.209,187.479,115.551,188.051z
		 M117.209,184.199c0.275,0.184,0.553,0.367,0.828,0.55C117.213,184.394,117.707,184.761,117.209,184.199z M115.827,189.977
		c0.093-0.184,0.185-0.366,0.276-0.55C115.979,189.731,116.34,189.634,115.827,189.977z M117.484,189.427
		c-0.798-0.434-0.807-0.456-1.381-0.551c-0.188-0.586,0.156-0.11-0.276-0.55c0.688-0.354,0.511,0.078,1.105-0.551
		c1.104,0.176,0.822-0.021,1.382,0.551C117.029,188.31,117.497,188.204,117.484,189.427z M116.933,183.374
		c-0.185,0.184-0.368,0.366-0.553,0.55c-0.092,0.184-0.185,0.367-0.276,0.551c0.369,0.366,0.736,0.733,1.105,1.101
		c-0.553-0.367-1.105-0.734-1.658-1.101c0.41,1.187-1.371,0.743-2.21,0.825c0.368,0.184,0.737,0.367,1.104,0.55
		c-0.889,0.684-0.346,1.225,0.277,2.201c-0.461-0.184-0.922-0.366-1.382-0.55c0.464,1.089,0.872,1.688,1.935,2.201
		c-1.688,2.26-4.167,1.521-5.527,3.301c-0.275-0.092-0.552-0.184-0.828-0.274c-0.797-1.092-1.559-0.947-0.553-1.651
		c-1.78-1.535-6.781-6.832-6.631-10.454c0.092,0.183,0.185,0.366,0.276,0.55c6.777,1.872,14.227,0.367,16.578,2.751
		C118.037,183.74,117.484,183.558,116.933,183.374z M121.63,201.808v-0.826h0.276C121.814,201.257,121.722,201.532,121.63,201.808z
		 M122.734,187.226c-0.645,0.459-1.289,0.917-1.934,1.376c0.184-0.643,0.368-1.284,0.553-1.926c0.805,0.526,0.396,0.286,1.381,0.274
		V187.226z M126.879,189.427h0.277c-0.369,0.366-0.737,0.733-1.105,1.101C126.326,190.16,126.604,189.793,126.879,189.427z
		 M126.326,193.828c0.093,0.184,0.185,0.367,0.277,0.551h-0.553L126.326,193.828z M126.604,195.479
		c-0.093-0.275-0.185-0.551-0.277-0.825c0.559,0.496,0.205-0.007,0.553,0.825H126.604z M126.879,193.828
		c0.093-0.183,0.185-0.366,0.277-0.55C127.03,193.583,127.393,193.485,126.879,193.828z M127.432,192.178v-1.101
		c0.092,0.367,0.185,0.734,0.276,1.101H127.432z"/>
	<path d="M105.604,184.199h-1.105c0.368,0.092,0.737,0.184,1.105,0.275V184.199z"/>
	<path d="M84.882,80.478v1.101c-0.748-0.102-0.066,0.094-0.829-0.275c-0.092,0.092-0.184,0.184-0.276,0.275
		c0.092,0.274,0.184,0.55,0.276,0.825h0.276C85.121,81.697,85.658,81.375,84.882,80.478z"/>
	<path d="M121.906,177.597c0.368-0.092,0.736-0.184,1.105-0.275c-0.185-0.367-0.369-0.733-0.553-1.101
		C122.274,176.679,122.09,177.138,121.906,177.597z"/>
	<path d="M118.59,178.972c0.645,0.275,1.29,0.551,1.935,0.825v-0.274c-0.093-0.184-0.185-0.367-0.276-0.551H118.59z"
		/>
	<path d="M123.012,176.496c0.184-0.184,0.367-0.367,0.553-0.551h-0.553V176.496z"/>
	<path d="M130.195,169.343c0.523-0.743,0.307-0.572,0-1.651c0.368,0.275,0.736,0.551,1.105,0.826
		c-2.308-4.423,0.57-15.077-2.211-20.359c0.276,0.092,0.553,0.184,0.828,0.274c-1.603-2.421-2.632-6.778-4.42-8.528
		c-0.621,2.053-0.086,3.167-1.658,3.302c0.276,0.55,0.553,1.101,0.829,1.65c-1.32-0.841-2.183-0.755-3.039-2.477h-0.276
		c0.178,1.633,1.049,1.475,1.934,2.752c-0.553-0.367-1.105-0.734-1.657-1.101c-2.768,4.685,2.765,11.474,2.486,15.682
		c0.517,0.194,0.087,0.297,0.553,0c0.658,1.522,0.096,1.874,1.382,2.201c-0.185,0.092-0.369,0.184-0.553,0.275
		c0.478,2.378,3.236,3.226,3.868,7.428C130.104,169.15,129.498,169.2,130.195,169.343z M122.734,147.883
		c0.252,0.489,0.271,0.07,0,0.55V147.883z M122.182,147.332c-0.68-0.737-0.387-0.815-0.552-2.2
		C121.814,145.865,121.998,146.599,122.182,147.332z M122.182,149.809c0.277,1.192,0.553,2.385,0.83,3.577
		C121.986,152.522,121.918,151.139,122.182,149.809z"/>
	<path d="M120.248,176.771c0.369,0.184,0.736,0.367,1.105,0.551c-0.276-0.367-0.553-0.733-0.829-1.101
		C120.432,176.404,120.34,176.588,120.248,176.771z"/>
	<path d="M121.63,178.146c0.092-0.092,0.185-0.184,0.276-0.275c-0.185-0.184-0.369-0.366-0.553-0.55
		c-0.185,0.184-0.369,0.366-0.553,0.55L121.63,178.146z"/>
	<path d="M99.25,125.322c0.454-0.988,0.327-2.934,0-3.301V125.322z"/>
	<path d="M126.604,79.651v-0.825c-0.369-0.092-0.737-0.184-1.105-0.274c0.092,0.274,0.184,0.55,0.275,0.825
		C126.051,79.469,126.326,79.561,126.604,79.651z"/>
	<path d="M125.222,139.629c0.601-0.569,0.601-0.257,0-0.825V139.629z"/>
	<path d="M127.156,137.703c-0.369-0.092-0.737-0.184-1.105-0.275c0.53,0.826,0.047,0.462,1.105,0.825V137.703z"/>
	<path d="M121.63,76.075h-1.105c0.368,0.275,0.737,0.55,1.105,0.825V76.075z"/>
	<path d="M131.576,182.549c-0.092,0.183-0.184,0.366-0.275,0.55h0.828
		C131.945,182.915,131.761,182.731,131.576,182.549z"/>
	<path d="M125.222,137.703c0.092,0.275,0.185,0.55,0.276,0.825c0.092-0.275,0.184-0.55,0.275-0.825
		c-0.275-0.275-0.552-0.55-0.828-0.825C125.1,137.734,124.635,137.059,125.222,137.703z"/>
	<path d="M118.314,176.496h0.828c-0.184-0.184-0.368-0.367-0.553-0.551L118.314,176.496z"/>
	<path d="M120.524,178.972c0.185,0.092,0.368,0.184,0.553,0.275c0.017-0.675-0.069-0.791-0.829-1.376
		C120.34,178.238,120.432,178.605,120.524,178.972z"/>
	<path d="M112.788,116.519c-0.093,0.367-0.185,0.733-0.276,1.101C112.91,117.048,113.149,117.267,112.788,116.519z"
		/>
	<path d="M98.144,119.545h0.829c-0.46-1.009-0.921-2.018-1.382-3.026C97.776,117.527,97.96,118.536,98.144,119.545z"
		/>
	<path d="M114.723,122.571h0.553c-0.093-0.184-0.186-0.367-0.277-0.55
		C114.906,122.204,114.814,122.388,114.723,122.571z"/>
	<path d="M109.196,155.312c-1.188-0.371-2.978,0.082-4.145-0.551c-0.766,1.412-1.7,0.552-2.763,0.275v0.275
		c0.558,0.496,0.205-0.007,0.553,0.825c1.934-0.184,3.868-0.367,5.802-0.551C108.828,155.494,109.012,155.402,109.196,155.312z"/>
	<path d="M98.973,120.37H98.42v0.275c0.976-0.5,0.336,0.16,0.829-0.825h-0.553
		C98.789,120.004,98.881,120.187,98.973,120.37z"/>
	<path d="M97.039,163.564h0.276c-0.184-0.366-0.368-0.733-0.552-1.1C96.854,162.831,96.947,163.198,97.039,163.564z"
		/>
	<path d="M115.275,172.369c-0.186,0.092-0.369,0.184-0.553,0.274C115.32,172.798,115.08,172.629,115.275,172.369z"/>
	<path d="M113.064,167.417h-1.105c0.369,0.092,0.736,0.183,1.105,0.274V167.417z"/>
	<path d="M98.973,159.713c-0.276,0.275-0.553,0.551-0.829,0.825c0.184,0.184,0.369,0.367,0.553,0.551v-0.551
		c0.368,0.184,0.737,0.367,1.105,0.551C99.568,160.014,99.591,160.553,98.973,159.713z"/>
	<path d="M118.314,177.597c-0.525-0.543-1.105,0.274-1.105,0.274c0.736,0.184,1.474,0.367,2.211,0.551
		c0.275-0.275,0.552-0.551,0.828-0.825c-0.276-0.275-0.553-0.551-0.828-0.826c0.037,0.701-0.031,0.321,0.275,1.101
		c-0.461-0.274-0.921-0.55-1.381-0.825V177.597z"/>
	<path d="M107.538,158.063c-0.092-0.275-0.185-0.551-0.276-0.825v0.825H107.538z"/>
	<path d="M106.433,158.063c0.184,0.092,0.369,0.184,0.553,0.275c-0.267-0.998,0.018-0.561-0.553-1.101V158.063z"/>
	<path d="M106.157,158.063c-0.092-0.275-0.184-0.551-0.276-0.825v0.825H106.157z"/>
</g>
</svg>
